<svg width="40" height="40" viewBox="0 0 16 16" fill="none" xmlns="http://www.w3.org/2000/svg">
<path d="M8.65699 5.00299C9.47899 6.76849 11.6195 7.50599 11.426 9.80349C11.198 12.5095 9.27349 13.1895 8.20949 13.2375C7.14549 13.286 5.11399 12.911 4.55749 10.36C3.93299 7.49449 6.66149 3.09299 8.23349 2.46399C8.17299 3.17749 8.32549 4.29199 8.65699 5.00299Z" fill="#432253"/>
<path d="M8.65699 5.00299C9.47899 6.76849 11.6195 7.50599 11.426 9.80349C11.198 12.5095 9.27349 13.1895 8.20949 13.2375C7.14549 13.286 5.11399 12.911 4.55749 10.36C3.93299 7.49449 6.66149 3.09299 8.23349 2.46399C8.17299 3.17749 8.32549 4.29199 8.65699 5.00299ZM7.25749 12.308C7.97699 12.4575 8.52849 12.5615 8.59399 12.272C8.69249 11.8355 7.01449 11.5895 5.89299 11.468C6.22949 11.823 6.90899 12.2355 7.25749 12.308Z" fill="#C49DD7"/>
</svg>
