<svg width="16" height="16" viewBox="0 0 16 16" fill="none" xmlns="http://www.w3.org/2000/svg">
<path fill-rule="evenodd" clip-rule="evenodd" d="M10.5 3H4.73244C4.90261 3.29417 5 3.63571 5 4V12C5 12.5523 5.44772 13 6 13H9V14H6C4.89543 14 4 13.1046 4 12V5H1.5C1.22386 5 1 4.77614 1 4.5V4C1 2.89543 1.89543 2 3 2H10.5C11.8807 2 13 3.11929 13 4.5V7H12V4.5C12 3.67157 11.3284 3 10.5 3ZM2 4C2 3.44772 2.44772 3 3 3C3.55228 3 4 3.44772 4 4H2Z" fill="#6C707E"/>
<path d="M13.0054 9.88469C13.5949 11.1952 15.1299 11.7427 14.9912 13.4481C14.8277 15.4567 13.4475 15.9615 12.6845 15.9971C11.9214 16.0331 10.4645 15.7548 10.0655 13.8612C9.6176 11.7341 11.5743 8.4669 12.7017 8C12.6583 8.52963 12.7677 9.35692 13.0054 9.88469Z" fill="#FAF8FC"/>
<path d="M13.0054 9.88469C13.5949 11.1952 15.1299 11.7427 14.9912 13.4481C14.8277 15.4567 13.4475 15.9615 12.6845 15.9971C11.9214 16.0331 10.4645 15.7548 10.0655 13.8612C9.6176 11.7341 11.5743 8.4669 12.7017 8C12.6583 8.52963 12.7677 9.35692 13.0054 9.88469ZM12.0017 15.3072C12.5177 15.4181 12.9132 15.4953 12.9602 15.2804C13.0309 14.9564 11.8275 14.7738 11.0232 14.6836C11.2645 14.9471 11.7518 15.2533 12.0017 15.3072Z" fill="#A074C4"/>
</svg>
