<!-- Based on VSCode Seti icon theme - Dark mode variant -->
<svg xmlns="http://www.w3.org/2000/svg" viewBox="0 0 32 32" width="16" height="16">
  <path d="M21.422 11.667c-.63-1.073-4.284-4.167-5.563-5.667-1.354 3.542-4.25 8.386-3.333 13.5.854 4.76 5.708 8.333 9.167 9.5-1.25-1.562-4.583-7.396-3.854-11.333.49-2.646 2.49-4.323 3.583-6z" style="fill:#c49dd7"/>
  <path d="M24.734 22.411c2.656-5.323.115-10.646-2.406-13.99-.24 3.802-1.333 6.74-3.49 9.594-2.24 2.958-3.677 6.031-3.677 9.719 0 1.01.073 1.958.24 2.844 3.875-.99 7.812-4.01 9.333-8.167z" style="fill:#c49dd7;opacity:.8"/>
</svg>
